HIERARCHY
ROOT Hips
{
	OFFSET 0.000000 0.000000 0.000000 
	CHANNELS 6 Xposition Yposition Zposition Zrotation Yrotation Xrotation
	JOINT LeftUpLeg
	{
		OFFSET 1.363060 -1.794630 0.839290 
		CHANNELS 3 Zrotation Yrotation Xrotation
		JOINT LeftLeg
		{
			OFFSET 2.448110 -6.726130 0.000000 
			CHANNELS 3 Zrotation Yrotation Xrotation
			JOINT LeftFoot
			{
				OFFSET 2.562200 -7.039590 0.000000 
				CHANNELS 3 Zrotation Yrotation Xrotation
				JOINT LeftToeBase
				{
					OFFSET 0.157640 -0.433110 2.322550 
					CHANNELS 3 Zrotation Yrotation Xrotation
					End Site
					{
						OFFSET 0.000000 0.000000 0.000000 
					}
				}
			}
		}
	}
	JOINT RightUpLeg
	{
		OFFSET -1.305520 -1.794630 0.839290 
		CHANNELS 3 Zrotation Yrotation Xrotation
		JOINT RightLeg
		{
			OFFSET -2.542530 -6.985550 0.000000 
			CHANNELS 3 Zrotation Yrotation Xrotation
			JOINT RightFoot
			{
				OFFSET -2.568260 -7.056230 0.000000 
				CHANNELS 3 Zrotation Yrotation Xrotation
				JOINT RightToeBase
				{
					OFFSET -0.164730 -0.452590 2.363150 
					CHANNELS 3 Zrotation Yrotation Xrotation
					End Site
					{
						OFFSET 0.000000 0.000000 0.000000 
					}
				}
			}
		}
	}
	JOINT Spine
	{
		OFFSET 0.028270 2.035590 -0.193380 
		CHANNELS 3 Zrotation Yrotation Xrotation
		JOINT Spine1
		{
			OFFSET 0.056720 2.048850 -0.042750 
			CHANNELS 3 Zrotation Yrotation Xrotation
			JOINT Neck1
			{
				OFFSET -0.054170 1.746240 0.172020 
				CHANNELS 3 Zrotation Yrotation Xrotation
				JOINT Head
				{
					OFFSET 0.104070 1.761360 -0.123970 
					CHANNELS 3 Zrotation Yrotation Xrotation
					End Site
					{
						OFFSET 0.000000 0.000000 0.000000 
					}
				}
			}
			JOINT LeftArm
			{
				OFFSET 3.362410 1.200890 -0.311210 
				CHANNELS 3 Zrotation Yrotation Xrotation
				JOINT LeftForeArm
				{
					OFFSET 4.983000 -0.000000 -0.000000 
					CHANNELS 3 Zrotation Yrotation Xrotation
					JOINT LeftHand
					{
						OFFSET 3.483560 -0.000000 -0.000000 
						CHANNELS 3 Zrotation Yrotation Xrotation
						JOINT LeftHandIndex1
						{
							OFFSET 0.715260 -0.000000 -0.000000 
							CHANNELS 3 Zrotation Yrotation Xrotation
							End Site
							{
								OFFSET 0.000000 0.000000 0.000000 
							}
						}
					}
				}
			}
			JOINT RightArm
			{
				OFFSET -3.136600 1.374050 -0.404650 
				CHANNELS 3 Zrotation Yrotation Xrotation
				JOINT RightForeArm
				{
					OFFSET -5.241900 -0.000000 -0.000000 
					CHANNELS 3 Zrotation Yrotation Xrotation
					JOINT RightHand
					{
						OFFSET -3.444170 -0.000000 -0.000000 
						CHANNELS 3 Zrotation Yrotation Xrotation
						JOINT RightHandIndex1
						{
							OFFSET -0.622530 -0.000000 -0.000000 
							CHANNELS 3 Zrotation Yrotation Xrotation
							End Site
							{
								OFFSET 0.000000 0.000000 0.000000 
							}
						}
					}
				}
			}
		}
	}
}
MOTION
Frames: 16
Frame Time: 0.041667
2.300592 17.355001 -2.819012 -162.501597 -85.480578 156.926678 -19.684203 9.557917 6.934381 0.437161 4.466541 12.583707 -1.238500 11.064317 -12.230705 0.017400 -0.850800 -2.338400 26.026461 4.878834 -0.157160 -2.125964 -10.353428 30.127779 0.816177 -10.272032 -19.025025 -0.001200 0.220300 -0.605400 1.350306 -1.460387 -0.307063 -0.964630 -0.691991 2.854779 5.854527 2.548714 8.072959 -0.701500 1.550400 1.365400 -79.033925 2.667208 26.100670 12.098716 -25.550015 -3.998081 -0.582929 -1.103887 -25.882044 -7.125000 0.000000 0.000000 73.662068 -3.802959 23.673959 -12.911894 26.242413 -4.192269 0.766555 0.395865 1.231327 7.125000 0.000000 0.000000 
2.299963 17.354581 -2.819536 -162.830302 -85.476954 157.256452 -19.709826 9.561818 6.923082 0.439213 4.477825 12.611396 -1.238413 11.069816 -12.246015 0.018100 -0.869000 -2.388400 25.994797 4.851338 -0.154423 -2.125495 -10.349261 30.119830 0.812233 -10.242525 -18.998986 -0.001100 0.212500 -0.583800 1.347997 -1.464843 -0.301060 -0.965142 -0.694469 2.888921 5.867018 2.534068 8.080987 -0.693900 1.543800 1.370400 -79.034712 2.669348 26.034859 12.005062 -25.441675 -3.957140 -0.586981 -1.090571 -25.827560 -7.125000 0.000000 0.000000 73.670357 -3.801984 23.686670 -12.909676 26.242183 -4.191294 0.770866 0.391473 1.182577 7.125000 0.000000 0.000000 
2.301851 17.355630 -2.820480 -161.597747 -85.417358 156.056999 -19.589707 9.550663 6.876648 0.442150 4.480832 12.628902 -1.237986 11.066544 -12.247288 0.017500 -0.853800 -2.346600 26.127147 4.900656 -0.179122 -2.118186 -10.351277 30.101487 0.818225 -10.273310 -19.007371 -0.001300 0.228900 -0.628900 1.353489 -1.477020 -0.309894 -0.933694 -0.702662 2.939204 6.069540 2.606730 8.272607 -0.504300 1.595100 1.551300 -79.054966 2.654331 25.933127 11.916166 -25.326040 -3.917557 -0.589898 -1.084811 -25.763805 -7.125000 0.000000 0.000000 73.631604 -3.731285 23.742938 -12.836644 26.156641 -4.157828 0.776223 0.386843 1.126109 7.125000 0.000000 0.000000 
2.300592 17.355315 -2.821319 -162.133388 -85.408065 156.590281 -19.635075 9.530902 6.885966 0.443650 4.489512 12.649509 -1.242032 11.102602 -12.291422 0.017700 -0.859400 -2.362000 26.084464 4.886358 -0.177563 -2.117584 -10.346407 30.092155 0.818766 -10.261763 -18.977580 -0.001100 0.217000 -0.596300 1.351810 -1.467006 -0.304201 -0.953424 -0.696120 2.911744 5.959302 2.545563 8.158737 -0.610800 1.555600 1.438300 -79.046549 2.699432 25.877521 11.831490 -25.238075 -3.885326 -0.590909 -1.091962 -25.732338 -7.125000 0.000000 0.000000 73.698195 -3.818169 23.591244 -12.886032 26.215538 -4.183001 0.769951 0.390346 1.270871 7.125000 0.000000 0.000000 
2.300592 17.355525 -2.822053 -161.935321 -85.377049 156.408116 -19.612760 9.512930 6.862687 0.446704 4.500243 12.680591 -1.243145 11.119289 -12.324901 0.017700 -0.858600 -2.359800 26.113229 4.896328 -0.187582 -2.113322 -10.342882 30.074357 0.820523 -10.261560 -18.960481 -0.001100 0.213300 -0.586000 1.352271 -1.465199 -0.305547 -0.951822 -0.695161 2.922212 6.000516 2.545563 8.192735 -0.574100 1.558300 1.467100 -79.048869 2.719700 25.806702 11.746523 -25.138597 -3.850071 -0.592931 -1.091659 -25.686283 -7.125000 0.000000 0.000000 73.714645 -3.834774 23.548187 -12.880125 26.209934 -4.181431 0.769516 0.389336 1.305738 7.125000 0.000000 0.000000 
2.300592 17.355735 -2.822892 -161.728243 -85.343590 156.217807 -19.588135 9.497109 6.851342 0.447849 4.501560 12.686001 -1.246801 11.145831 -12.349487 0.017600 -0.857700 -2.357300 26.145329 4.912898 -0.203355 -2.110574 -10.342861 30.065876 0.821159 -10.259216 -18.948254 -0.001000 0.207700 -0.570600 1.352759 -1.462493 -0.307465 -0.948445 -0.693931 2.932964 6.046986 2.548287 8.232543 -0.532000 1.562700 1.501600 -79.051792 2.739879 25.732318 11.661303 -25.038511 -3.815140 -0.594745 -1.092130 -25.635848 -7.125000 0.000000 0.000000 73.727946 -3.849620 23.508688 -12.870739 26.200363 -4.178340 0.768781 0.388205 1.340027 7.125000 0.000000 0.000000 
2.300487 17.355945 -2.823626 -161.633047 -85.313218 156.136535 -19.575290 9.477537 6.837195 0.449861 4.507808 12.704357 -1.249543 11.171440 -12.384764 0.017500 -0.854400 -2.348300 26.166356 4.926302 -0.215136 -2.107512 -10.341055 30.054123 0.821738 -10.254495 -18.931798 -0.001000 0.203300 -0.558500 1.352629 -1.458409 -0.308785 -0.946390 -0.691987 2.942677 6.083752 2.547433 8.264737 -0.498500 1.564700 1.529100 -79.053781 2.759869 25.656742 11.574359 -24.936461 -3.779618 -0.596779 -1.092671 -25.582223 -7.125000 0.000000 0.000000 73.738946 -3.865066 23.476160 -12.859285 26.188657 -4.174131 0.768245 0.386856 1.366230 7.125000 0.000000 0.000000 
2.300383 17.356049 -2.824465 -161.543797 -85.282330 156.061266 -19.562628 9.457794 6.829106 0.451251 4.511499 12.715612 -1.252832 11.199686 -12.418651 0.017300 -0.849600 -2.335000 26.188204 4.942637 -0.225039 -2.104842 -10.339808 30.044195 0.822671 -10.251737 -18.916787 -0.001000 0.202600 -0.556700 1.352459 -1.454127 -0.309939 -0.943570 -0.689972 2.954086 6.120960 2.548419 8.300263 -0.464100 1.567900 1.560100 -79.055920 2.777920 25.576732 11.485014 -24.831172 -3.743278 -0.599018 -1.092906 -25.525081 -7.125000 0.000000 0.000000 73.743259 -3.874671 23.459507 -12.840325 26.168416 -4.166332 0.768393 0.384842 1.377720 7.125000 0.000000 0.000000 
2.300173 17.356154 -2.825199 -161.522213 -85.252255 156.050240 -19.555270 9.439696 6.828956 0.452138 4.512600 12.719560 -1.256607 11.229889 -12.451829 0.017000 -0.840800 -2.310800 26.205305 4.960826 -0.232066 -2.102799 -10.338899 30.036471 0.823190 -10.247973 -18.902689 -0.001000 0.203600 -0.559500 1.352474 -1.449171 -0.309300 -0.940974 -0.687726 2.966807 6.140795 2.545468 8.320604 -0.445900 1.568000 1.577100 -79.058124 2.790779 25.490165 11.391819 -24.721675 -3.705722 -0.601333 -1.093481 -25.465420 -7.125000 0.000000 0.000000 73.745527 -3.882911 23.446563 -12.821513 26.148256 -4.158505 0.768643 0.383124 1.384639 7.125000 0.000000 0.000000 
2.299858 17.356259 -2.825828 -161.544538 -85.224720 156.079282 -19.551611 9.423928 6.836145 0.452516 4.512209 12.719504 -1.260413 11.259703 -12.483394 0.016600 -0.831500 -2.285200 26.217816 4.976043 -0.234970 -2.101134 -10.337854 30.029871 0.825043 -10.248994 -18.886790 -0.001100 0.210900 -0.579400 1.352506 -1.443746 -0.307792 -0.941773 -0.684973 2.974404 6.140528 2.535613 8.324437 -0.446300 1.563300 1.578200 -79.058545 2.804177 25.401963 11.295849 -24.609455 -3.667398 -0.603605 -1.094224 -25.409790 -7.125000 0.000000 0.000000 73.748164 -3.896248 23.434061 -12.803733 26.129543 -4.151248 0.768827 0.381561 1.391489 7.125000 0.000000 0.000000 
2.299544 17.356364 -2.826457 -161.551795 -85.198267 156.091480 -19.546431 9.409017 6.847107 0.452720 4.510534 12.716105 -1.264171 11.288290 -12.513059 0.016200 -0.821400 -2.257600 26.230887 4.987874 -0.236743 -2.099634 -10.337064 30.024158 0.826713 -10.249457 -18.870904 -0.001100 0.218400 -0.600100 1.352951 -1.439582 -0.305422 -0.941936 -0.683033 2.984237 6.135550 2.525811 8.325209 -0.450900 1.558300 1.576500 -79.059150 2.812909 25.310775 11.198175 -24.495040 -3.628580 -0.606109 -1.094074 -25.360970 -7.125000 0.000000 0.000000 73.749156 -3.907246 23.423148 -12.786289 26.111150 -4.144080 0.769044 0.380150 1.396651 7.125000 0.000000 0.000000 
2.299229 17.356574 -2.827086 -161.543161 -85.173310 156.086618 -19.539573 9.396481 6.859651 0.452657 4.507984 12.710366 -1.267966 11.316239 -12.538031 0.016000 -0.815600 -2.241600 26.244368 4.996257 -0.237845 -2.098506 -10.336503 30.019522 0.828618 -10.251026 -18.855436 -0.001200 0.227300 -0.624500 1.353335 -1.435746 -0.303365 -0.942370 -0.681211 2.992228 6.131919 2.516231 8.327305 -0.454100 1.553600 1.575900 -79.058972 2.821171 25.217530 11.099959 -24.379030 -3.589467 -0.608502 -1.093092 -25.314060 -7.125000 0.000000 0.000000 73.750685 -3.920494 23.408514 -12.770151 26.094131 -4.137519 0.769217 0.379004 1.406907 7.125000 0.000000 0.000000 
2.298914 17.356679 -2.827715 -161.522637 -85.148899 156.070655 -19.531872 9.382732 6.873459 0.452500 4.504478 12.702436 -1.271664 11.343042 -12.563120 0.015600 -0.806900 -2.217700 26.257440 5.001851 -0.241111 -2.097565 -10.336422 30.016421 0.828718 -10.245156 -18.840814 -0.001300 0.230500 -0.633400 1.353562 -1.431820 -0.301808 -0.944070 -0.679269 2.997849 6.129453 2.506500 8.330427 -0.456100 1.548900 1.576400 -79.057251 2.830263 25.124927 11.002195 -24.263143 -3.550790 -0.610858 -1.092408 -25.268283 -7.125000 0.000000 0.000000 73.753800 -3.934690 23.389353 -12.754501 26.077719 -4.131397 0.769659 0.378262 1.421025 7.125000 0.000000 0.000000 
2.298495 17.356783 -2.828344 -161.552078 -85.128590 156.101714 -19.529616 9.370158 6.888596 0.452063 4.500538 12.692594 -1.275329 11.369257 -12.585194 0.015300 -0.799900 -2.198300 26.263541 5.003490 -0.244735 -2.097129 -10.336557 30.015038 0.828036 -10.235960 -18.826785 -0.001300 0.229400 -0.630400 1.353335 -1.428858 -0.300022 -0.944761 -0.677892 3.005457 6.129436 2.497893 8.335868 -0.455900 1.544900 1.579000 -79.055056 2.839107 25.029815 10.906347 -24.149283 -3.513075 -0.612950 -1.091466 -25.217370 -7.125000 0.000000 0.000000 73.757618 -3.945601 23.365083 -12.737184 26.059030 -4.124588 0.769880 0.378319 1.442236 7.125000 0.000000 0.000000 
2.298180 17.356993 -2.828869 -161.636567 -85.111205 156.191652 -19.533335 9.357897 6.900730 0.451414 4.496447 12.681677 -1.278934 11.394248 -12.605837 0.015000 -0.790900 -2.173600 26.262665 5.004243 -0.252023 -2.096958 -10.337008 30.014939 0.825727 -10.219711 -18.813541 -0.001200 0.223300 -0.613600 1.352687 -1.426148 -0.298848 -0.944104 -0.676652 3.011657 6.131498 2.490220 8.342596 -0.453600 1.541500 1.582500 -79.053200 2.850701 24.935135 10.812772 -24.037775 -3.476287 -0.615117 -1.089279 -25.161989 -7.125000 0.000000 0.000000 73.758445 -3.953207 23.347319 -12.715349 26.035078 -4.115711 0.770472 0.379114 1.457317 7.125000 0.000000 0.000000 
2.297971 17.357203 -2.829498 -161.711144 -85.093925 156.272499 -19.536803 9.344036 6.910060 0.450829 4.492871 12.672096 -1.282073 11.417340 -12.627374 0.014600 -0.779900 -2.143500 26.263007 5.007725 -0.260652 -2.096775 -10.337603 30.014778 0.823117 -10.203625 -18.802943 -0.001100 0.215000 -0.590700 1.351964 -1.423367 -0.298327 -0.943503 -0.675322 3.015975 6.135388 2.483414 8.351246 -0.449600 1.538700 1.587900 -79.051311 2.865105 24.839378 10.721742 -23.929038 -3.440653 -0.617108 -1.086796 -25.102363 -7.125000 0.000000 0.000000 73.757494 -3.958743 23.334498 -12.689890 26.006744 -4.105058 0.771306 0.380198 1.468473 7.125000 0.000000 0.000000 
